<svg width="121" height="42" viewBox="0 0 121 42" fill="none" xmlns="http://www.w3.org/2000/svg">
<path fill-rule="evenodd" clip-rule="evenodd" d="M0 0.387453V0.806362V4.99551V41.86L4.93896e-05 41.86L4.60806 41.86L36.8645 41.86L41.0537 41.86L41.4726 41.86V4.99551H36.8645V37.2519H4.60806V4.99551L36.8645 4.99551V0.387451L0 0.387453Z" fill="url(#paint0_linear)"/>
<path fill-rule="evenodd" clip-rule="evenodd" d="M14.2431 11.6982H18.4323V11.6983L27.6484 11.6983V15.8874L18.4323 15.8874V19.6576H14.2431V15.8874H14.2431L14.2431 11.6983H14.2431V11.6982ZM23.0402 25.1035V20.9144H18.4323H14.2431H14.243V25.1035H14.2431V31.3873H18.4323V25.1035H23.0402Z" fill="#404040"/>
<path d="M53.6831 22.8051C54.8101 22.8051 55.7857 22.9904 56.6097 23.3611C57.4459 23.7318 58.0882 24.258 58.5366 24.9396C58.985 25.6212 59.2092 26.4284 59.2092 27.3611C59.2092 28.2818 58.985 29.089 58.5366 29.7826C58.0882 30.4642 57.4459 30.9903 56.6097 31.361C55.7857 31.7198 54.8101 31.8991 53.6831 31.8991H51.1199V35.361H48.175V22.8051H53.6831ZM53.5194 29.5314C54.4041 29.5314 55.0767 29.3461 55.5372 28.9754C55.9977 28.5927 56.228 28.0546 56.228 27.3611C56.228 26.6556 55.9977 26.1174 55.5372 25.7467C55.0767 25.3641 54.4041 25.1728 53.5194 25.1728H51.1199V29.5314H53.5194Z" fill="#404040"/>
<path d="M68.0152 35.5762C66.6942 35.5762 65.5005 35.2952 64.434 34.7332C63.3797 34.1711 62.5496 33.3998 61.9436 32.4193C61.3498 31.4268 61.0529 30.3147 61.0529 29.083C61.0529 27.8513 61.3498 26.7452 61.9436 25.7647C62.5496 24.7722 63.3797 23.9949 64.434 23.4329C65.5005 22.8709 66.6942 22.5898 68.0152 22.5898C69.3361 22.5898 70.5238 22.8709 71.5781 23.4329C72.6324 23.9949 73.4626 24.7722 74.0685 25.7647C74.6745 26.7452 74.9774 27.8513 74.9774 29.083C74.9774 30.3147 74.6745 31.4268 74.0685 32.4193C73.4626 33.3998 72.6324 34.1711 71.5781 34.7332C70.5238 35.2952 69.3361 35.5762 68.0152 35.5762ZM68.0152 33.1009C68.7665 33.1009 69.4452 32.9335 70.0511 32.5987C70.6571 32.2519 71.1297 31.7736 71.469 31.1637C71.8205 30.5539 71.9962 29.8603 71.9962 29.083C71.9962 28.3058 71.8205 27.6122 71.469 27.0023C71.1297 26.3925 70.6571 25.9201 70.0511 25.5853C69.4452 25.2385 68.7665 25.0651 68.0152 25.0651C67.2638 25.0651 66.5851 25.2385 65.9792 25.5853C65.3733 25.9201 64.8946 26.3925 64.5431 27.0023C64.2038 27.6122 64.0341 28.3058 64.0341 29.083C64.0341 29.8603 64.2038 30.5539 64.5431 31.1637C64.8946 31.7736 65.3733 32.2519 65.9792 32.5987C66.5851 32.9335 67.2638 33.1009 68.0152 33.1009Z" fill="#404040"/>
<path d="M81.7352 35.5762C80.7293 35.5762 79.7537 35.4447 78.8085 35.1816C77.8753 34.9066 77.124 34.5538 76.5544 34.1233L77.5542 31.935C78.0995 32.3296 78.7479 32.6465 79.4993 32.8857C80.2506 33.1248 81.002 33.2444 81.7534 33.2444C82.5896 33.2444 83.2076 33.1248 83.6075 32.8857C84.0075 32.6345 84.2074 32.3057 84.2074 31.8991C84.2074 31.6002 84.0862 31.355 83.8438 31.1637C83.6136 30.9604 83.3106 30.799 82.9349 30.6794C82.5714 30.5598 82.0745 30.4283 81.4443 30.2848C80.4748 30.0576 79.681 29.8304 79.063 29.6032C78.4449 29.376 77.9117 29.0113 77.4633 28.509C77.027 28.0068 76.8089 27.3372 76.8089 26.5001C76.8089 25.7707 77.0088 25.113 77.4088 24.527C77.8087 23.9291 78.4086 23.4568 79.2084 23.11C80.0204 22.7632 81.008 22.5898 82.1715 22.5898C82.9834 22.5898 83.7772 22.6855 84.5528 22.8768C85.3284 23.0682 86.0071 23.3432 86.5888 23.7019L85.6799 25.9082C84.5043 25.2505 83.3288 24.9216 82.1533 24.9216C81.3292 24.9216 80.7172 25.0532 80.3173 25.3163C79.9295 25.5793 79.7356 25.9261 79.7356 26.3566C79.7356 26.7871 79.9598 27.11 80.4082 27.3252C80.8687 27.5285 81.5655 27.7318 82.4987 27.9351C83.4682 28.1623 84.262 28.3895 84.88 28.6167C85.4981 28.8439 86.0252 29.2026 86.4615 29.6929C86.9099 30.1832 87.1341 30.8468 87.1341 31.6839C87.1341 32.4014 86.9281 33.059 86.516 33.6569C86.1161 34.2429 85.5102 34.7092 84.6982 35.056C83.8863 35.4028 82.8986 35.5762 81.7352 35.5762Z" fill="#404040"/>
<path d="M51.1091 9.30035V12.7257H56.9772V15.1328H51.1091V19.8542H48.175V6.89333H57.756V9.30035H51.1091Z" fill="#404040"/>
<path d="M65.7372 20.0764C63.9261 20.0764 62.5134 19.5641 61.4991 18.5396C60.497 17.5151 59.9959 16.0524 59.9959 14.1514V6.89333H62.9299V14.0403C62.9299 16.361 63.8717 17.5213 65.7553 17.5213C66.673 17.5213 67.3733 17.2435 67.8563 16.6881C68.3392 16.1203 68.5807 15.2377 68.5807 14.0403V6.89333H71.4786V14.1514C71.4786 16.0524 70.9714 17.5151 69.9572 18.5396C68.955 19.5641 67.5484 20.0764 65.7372 20.0764Z" fill="#404040"/>
<path d="M78.9058 20.0764C77.9036 20.0764 76.9317 19.9406 75.9899 19.6691C75.0601 19.3852 74.3115 19.021 73.744 18.5767L74.7402 16.3178C75.2835 16.7251 75.9295 17.0522 76.6781 17.2991C77.4267 17.546 78.1753 17.6694 78.9239 17.6694C79.757 17.6694 80.3728 17.546 80.7713 17.2991C81.1697 17.0399 81.369 16.7004 81.369 16.2807C81.369 15.9721 81.2482 15.7191 81.0067 15.5216C80.7773 15.3117 80.4755 15.1451 80.1012 15.0217C79.7389 14.8982 79.2439 14.7624 78.616 14.6143C77.6501 14.3798 76.8592 14.1453 76.2434 13.9107C75.6276 13.6762 75.0964 13.2997 74.6496 12.7813C74.2149 12.2628 73.9976 11.5716 73.9976 10.7075C73.9976 9.95457 74.1968 9.27567 74.5953 8.67082C74.9937 8.05364 75.5914 7.56606 76.3883 7.20809C77.1973 6.85013 78.1813 6.67114 79.3405 6.67114C80.1495 6.67114 80.9403 6.76989 81.7131 6.96739C82.4858 7.16489 83.162 7.4488 83.7416 7.81911L82.836 10.0965C81.6648 9.41762 80.4936 9.07817 79.3224 9.07817C78.5013 9.07817 77.8916 9.21395 77.4931 9.48551C77.1067 9.75707 76.9136 10.115 76.9136 10.5594C76.9136 11.0038 77.1369 11.3371 77.5837 11.5593C78.0425 11.7691 78.7368 11.9789 79.6665 12.1888C80.6324 12.4233 81.4233 12.6578 82.0391 12.8924C82.6549 13.1269 83.1801 13.4972 83.6148 14.0033C84.0615 14.5094 84.2849 15.1945 84.2849 16.0585C84.2849 16.7992 84.0796 17.4781 83.6691 18.0952C83.2707 18.7001 82.667 19.1815 81.858 19.5395C81.049 19.8974 80.0649 20.0764 78.9058 20.0764Z" fill="#404040"/>
<path d="M86.652 6.89333H89.5861V19.8542H86.652V6.89333Z" fill="#404040"/>
<path d="M99.0968 20.0764C97.7807 20.0764 96.5914 19.7863 95.5289 19.2062C94.4784 18.626 93.6513 17.8299 93.0476 16.8177C92.456 15.7931 92.1601 14.6452 92.1601 13.3738C92.1601 12.1024 92.456 10.9606 93.0476 9.9484C93.6513 8.92387 94.4784 8.12153 95.5289 7.54137C96.5914 6.96122 97.7807 6.67114 99.0968 6.67114C100.413 6.67114 101.596 6.96122 102.647 7.54137C103.697 8.12153 104.524 8.92387 105.128 9.9484C105.732 10.9606 106.034 12.1024 106.034 13.3738C106.034 14.6452 105.732 15.7931 105.128 16.8177C104.524 17.8299 103.697 18.626 102.647 19.2062C101.596 19.7863 100.413 20.0764 99.0968 20.0764ZM99.0968 17.5213C99.8454 17.5213 100.522 17.3485 101.125 17.0028C101.729 16.6449 102.2 16.1511 102.538 15.5216C102.888 14.8921 103.063 14.1761 103.063 13.3738C103.063 12.5714 102.888 11.8555 102.538 11.226C102.2 10.5964 101.729 10.1089 101.125 9.76324C100.522 9.40527 99.8454 9.22629 99.0968 9.22629C98.3482 9.22629 97.6721 9.40527 97.0683 9.76324C96.4646 10.1089 95.9877 10.5964 95.6375 11.226C95.2995 11.8555 95.1304 12.5714 95.1304 13.3738C95.1304 14.1761 95.2995 14.8921 95.6375 15.5216C95.9877 16.1511 96.4646 16.6449 97.0683 17.0028C97.6721 17.3485 98.3482 17.5213 99.0968 17.5213Z" fill="#404040"/>
<path d="M120.228 6.89333V19.8542H117.82L111.499 11.9851V19.8542H108.601V6.89333H111.028L117.331 14.7624V6.89333H120.228Z" fill="#404040"/>
<defs>
<linearGradient id="paint0_linear" x1="0" y1="0.387451" x2="41.4726" y2="41.8601" gradientUnits="userSpaceOnUse">
<stop stop-color="#1DC4F4"/>
<stop offset="1" stop-color="#05AEF1"/>
</linearGradient>
</defs>
</svg>
